<?xml version="1.0" encoding="utf-8" ?><svg xmlns="http://www.w3.org/2000/svg" xmlns:xlink="http://www.w3.org/1999/xlink" width="1344" height="768" viewBox="0 0 1344 768"><path fill="#F6625E" d="M662.016 305.153C679.499 278.909 699.935 253.109 716.423 227.64C728.749 244.097 739.808 256.886 752.552 272.698L806.04 339.568C816.173 352.131 829.282 367.71 838.781 380.664C865.056 381.096 892.231 382.733 918.6 383.459C930.349 383.783 961.459 384.251 970.984 386.355C956.646 387.863 933.398 387.246 918.562 387.252L834.962 387.249C810.356 358.451 787.063 327.095 762.951 297.726C748.399 280.002 735.272 261.148 719.717 244.095C719.939 256.858 720.205 271.14 719.816 283.86C713.619 292.598 706.17 303.135 699.308 311.33C706.297 320.189 713.215 329.103 720.062 338.073C702.664 352.252 678.89 375.271 662.143 387.245C652.368 388.135 633.35 387.679 623.065 387.532C609.639 387.342 592.627 388.001 579.519 387.369C575.658 388.017 538.969 387.576 532.89 387.434C501.335 386.701 467.404 388.355 436.13 387.179C428.778 385.007 409.84 388.113 400.712 384.683C426.772 382.539 453.571 383.433 479.659 381.379C484.616 380.989 491.768 377.244 496.171 374.824C520.835 361.266 545.915 348.214 570.085 333.815C571.542 332.948 575.237 327.904 576.435 326.33C590.836 303.359 609.883 280.772 624.361 257.961C636.647 273.848 648.836 290.004 662.016 305.153ZM565.905 380.505C596.669 380.541 631.069 381.285 661.6 380.433L667.269 375.593C668.727 373.664 677.432 366.716 679.618 364.85L712.245 337.054C705.455 328.554 698.816 319.933 692.332 311.196C699.631 301.614 706.813 291.945 713.879 282.19C714.261 269.867 714.133 257.09 714.16 244.728C701.623 259.582 687.522 281.417 676.342 297.572C661.05 319.669 654.911 321.628 633.049 336.159L580.415 371.355C575.691 374.352 570.682 377.661 565.905 380.505ZM626.688 274.062C623.05 289.68 619.582 304.404 615.265 319.866C618.122 323.213 623.268 328.892 625.683 332.28L637.477 324.364C643.885 320.117 650.995 315.18 657.552 311.307C652.261 304.549 631.962 278.3 626.688 274.062ZM552.99 380.521C566.502 371.283 580.157 362.253 593.95 353.438C602.616 347.083 612.134 340.976 621.138 335.024L609.037 321.455C613.329 306.573 616.7 292.229 620.227 277.127C616.97 281 612.449 287.907 609.305 292.18C600.129 304.651 591.525 317.687 582.226 330.08C575.904 341.417 557.985 349.517 546.572 355.942C531.723 364.302 515.624 373.813 500.11 380.672C509.406 380.674 521.98 380.294 531.006 380.77L552.99 380.521Z"/><defs><linearGradient id="gradient_0" gradientUnits="userSpaceOnUse" x1="488.95544" y1="336.36343" x2="489.53705" y2="386.41962"><stop offset="0" stop-color="#F44672"/><stop offset="1" stop-color="#D83382"/></linearGradient></defs><path fill="url(#gradient_0)" d="M400.712 384.683C426.772 382.539 453.571 383.433 479.659 381.379C484.616 380.989 491.768 377.244 496.171 374.824C520.835 361.266 545.915 348.214 570.085 333.815C571.542 332.948 575.237 327.904 576.435 326.33C575.884 331.221 572.545 332.623 571.413 335.815C568.703 343.453 538.661 355.271 536.983 359.253C546.667 356.509 563.133 343.213 572.879 339.329C576.203 338.004 579.115 330.171 582.226 330.08C575.904 341.417 557.985 349.517 546.572 355.942C531.723 364.302 515.624 373.813 500.11 380.672C509.406 380.674 521.98 380.294 531.006 380.77C527.66 381.208 523.21 381.532 520.261 382.941L518.839 383.636C524.73 384.421 533.847 386.328 539.438 386.213C553.334 385.926 565.665 386.254 579.519 387.369C575.658 388.017 538.969 387.576 532.89 387.434C501.335 386.701 467.404 388.355 436.13 387.179C428.778 385.007 409.84 388.113 400.712 384.683Z"/><path fill="#E83E78" d="M593.95 353.438C591.692 360.751 573.729 365.399 580.415 371.355C575.691 374.352 570.682 377.661 565.905 380.505C596.669 380.541 631.069 381.285 661.6 380.433L667.269 375.593L667.563 377.049C666.211 379.024 663.799 380.234 661.719 381.523C651.705 381.374 567.921 382.048 565.392 381.009C565.848 379.116 568.788 376.902 570.386 375.465C568.509 374.624 562.028 377.086 560.27 378.211C553.127 382.783 545.083 382.016 536.894 382.449C531.711 382.723 525.502 383.205 520.261 382.941C523.21 381.532 527.66 381.208 531.006 380.77L552.99 380.521C566.502 371.283 580.157 362.253 593.95 353.438Z"/><path fill="#E83E78" d="M515.32 424.897C532.035 423.205 552.754 429.444 556.144 448.206C557.378 455.192 555.719 462.38 551.547 468.118C545.629 476.298 536.685 479.627 527.117 481.142C516.677 481.912 506.796 481.088 497.871 474.908C479.116 461.922 483.099 434.695 504.61 427.327C508.549 425.977 511.226 425.52 515.32 424.897ZM528.376 476.342C536.268 474.282 543.432 471.4 547.91 463.962C550.761 459.23 551.581 453.547 550.184 448.202C546.149 432.295 529.04 427.842 514.578 429.434C506.682 431.261 499.861 433.774 495.236 441.063C492.074 446.15 491.11 452.302 492.565 458.113C496.536 474.375 513.915 478.004 528.376 476.342Z"/><path fill="#E83E78" d="M422.391 467.758C426.721 460.557 449.469 427.163 455.371 424.98C456.159 425.233 456.745 425.22 456.895 425.899C458.776 434.402 458.544 474.138 457.181 480.158C454.833 481.263 455.722 481.222 453.583 480.814C450.735 477.946 451.934 448.3 451.912 442.969L451.831 434.905C443.274 446.722 431.451 464.535 422.504 475.323C416.14 468.345 398.474 442.653 392.456 434.173C392.523 440.066 393.462 477.532 391.542 480.242C389.157 480.526 389.725 480.791 387.774 479.966C386.434 477.449 386.836 429.011 388.253 424.32C396.161 426.894 417.177 459.418 422.391 467.758Z"/><path fill="#F87657" d="M867.769 472.498C867.763 464.582 866.759 430.558 869.337 425.372C871.115 424.947 871.187 424.997 872.991 425.515C875.133 430.486 872.951 470.001 873.148 477.634C873.171 478.52 872.353 480.078 871.791 480.806C863.911 478.302 830.903 441.23 823.052 433.108C823.156 433.893 823.241 434.68 823.308 435.469C824.258 447.222 823.313 464.655 823.6 476.913C823.639 478.575 822.923 479.595 821.967 480.719C819.419 480.869 820.451 481.046 818.017 479.833C816.721 472.854 817.642 433.96 817.862 424.87C826.292 426.197 835.522 438.192 841.528 444.337C850.373 453.387 859.454 462.963 867.769 472.498Z"/><path fill="#E83E78" d="M635.224 472.595L635.217 440.851C635.208 436.805 633.953 427.703 636.871 425.339C639.093 425.366 638.684 425.009 640.036 426.128C641.96 439.955 640.99 466.979 640.586 481.052C631.904 479.585 621.925 466.634 615.77 460.144C607.323 451.228 598.76 442.424 590.082 433.734C590.053 448.537 591.24 464.104 589.997 478.785C589.883 480.141 590.008 479.67 588.887 480.557C586.41 480.671 586.875 481.031 585.151 479.933C584.222 477.877 584.274 429.174 585.11 425.354C593.258 426.696 604.235 440.055 610.072 446.17C618.537 454.901 626.921 463.71 635.224 472.595Z"/><path fill="#F87657" d="M758.911 424.495C760.275 424.662 761.262 424.912 762.6 425.232C766.529 428.386 791.844 473.428 793.65 479.671L793.18 480.439C790.945 480.847 788.276 480.46 787.042 478.314C778.259 463.043 770.644 446.685 761.28 431.771C755.682 433.422 736.044 486.031 728.373 480.118C728.581 476.198 755.188 429.432 758.911 424.495Z"/><path fill="#FE9650" d="M929.634 424.391C930.642 424.402 931.926 424.312 932.903 424.552C937.133 425.594 959.132 467.399 962.344 473.517C963.22 475.187 965.236 478.19 964.701 479.926C958.044 482.191 955.082 471.454 952.145 466.273L932.7 432.204L931.875 431.346C926.116 434.622 909.799 479.102 899.987 480.762L899.093 480.03C898.943 476.147 925.98 430.348 929.634 424.391Z"/><path fill="#F6625E" d="M708.23 424.995C711.691 424.63 717.11 425.112 719.807 427.501L719.066 428.382C712.418 430.631 701.917 429.843 694.605 429.727C695.139 445.554 694.634 463.265 694.011 479.124C693.98 479.923 693.39 479.976 692.658 480.446C690.568 480.438 690.855 480.751 689.332 479.821C688.383 476.442 688.489 471.787 688.401 468.185C688.225 455.814 688.179 441.88 688.787 429.589C683.655 429.481 665.474 430.929 662.915 427.602L663.484 426.147C665.683 424.523 702.451 425.28 708.23 424.995Z"/><path fill="#F6625E" d="M673.914 523.286C690.75 522.22 701.177 535.793 682.51 545.391C663.914 547.158 657.238 530.307 673.914 523.286ZM682.336 542.652C695.648 535.316 687.454 525.306 674.616 525.858C661.418 532.32 668.184 544.031 682.336 542.652Z"/><path fill="#E83E78" d="M496.872 523.675C507.45 523.559 530.253 524.677 517.699 541.333C511.154 546.076 505.167 545.038 497.116 544.975C497.11 537.874 497.029 530.774 496.872 523.675ZM515.108 539.769C522.937 526.605 509.328 525.861 500.054 525.943L500.147 542.571C506.162 542.758 509.701 543.013 515.108 539.769Z"/><path fill="#F6625E" d="M739.555 523.298C746.336 522.945 758.303 522.639 761.002 530.79C760.475 534.993 756.301 536.379 752.545 537.199C749.62 537.262 746.696 537.373 743.775 537.53C742.636 538.54 743.072 541.817 742.797 544.235L741.535 545.218L740.702 544.722C739.045 541.155 739.548 527.985 739.555 523.298ZM742.954 534.855C747.314 534.976 751.461 535.447 755.572 534.022C756.327 532.027 756.703 531.421 756.109 529.356C753.489 525.177 747.471 525.828 743.089 525.933C743.05 528.873 743.055 531.928 742.954 534.855Z"/><path fill="#E83E78" d="M595.928 522.358C601.735 527.966 607.017 538.58 610.221 545.898C604.889 542.24 604.568 539.975 598.182 539.759C595.873 539.708 593.525 539.666 591.217 539.688C587.158 539.727 589.212 544.34 584.806 544.602C584.197 541.682 593.937 525.523 595.928 522.358ZM598.664 537.043L600.825 536.823C601.456 534.337 597.957 529.249 596.196 527.557C594.803 529.827 591.988 533.595 592.16 535.962C594.001 537.449 596.015 537.066 598.664 537.043Z"/><path fill="#F6625E" d="M701.667 522.104C706.664 524.472 710.995 530.473 714.66 534.826C718.661 529.763 721.608 525.827 726.865 522.002C727.992 532.533 728.133 538.37 725.251 548.595C724.005 543.082 724.285 537.819 724.315 532.185L724.218 530.244L723.482 529.716C721.053 530.951 716.403 537.309 714.329 539.877C711.438 536.612 707.71 531.599 704.918 528.073C705.009 533.684 705.035 538.625 704.789 544.226L704.053 544.78L702.431 544.457C701.744 536.009 701.595 530.515 701.667 522.104Z"/><path fill="#F6625E" d="M777.529 522.363C780.539 525.206 789.947 540.439 789.595 544.004C784.105 542.774 787.086 539.967 779.203 539.288C778.229 539.28 774.403 539.409 773.687 539.3C768.338 538.489 769.889 546.157 765.337 544.105C765.244 541.479 775.425 525.697 777.529 522.363Z"/><path fill="#E83E78" d="M539.028 523.441C544.337 525.721 550.283 538.416 552.753 543.594L552.359 544.363C549.022 543.812 548.9 539.77 544.195 539.385L533.501 539.12C530.81 543.299 530.167 543.993 526.658 547.422C528.913 539.962 534.795 529.966 539.028 523.441ZM540.973 536.98L543.748 536.626C545.077 534.115 541.627 528.872 539.769 527.447C538.247 530.024 535.7 533.354 535.881 535.972C538.023 537.286 538.11 536.859 540.973 536.98Z"/><path fill="#F87657" d="M800.371 522.168C806.004 525.329 815.331 535.062 820.273 539.969C820.19 535.954 819.398 526.734 822.019 523.961L821.771 523.458L822.025 523.599C824.026 528.925 823.456 538.348 823.266 544.204L822.564 545.212C819.26 544.527 806.537 531.297 803.336 528.174C803.434 534.645 803.882 541.021 801.745 547.15C799.901 539.343 800.053 530.123 800.371 522.168Z"/><path fill="#E83E78" d="M644.607 522.639C648.298 522.525 655.056 523.44 656.83 527.19C655.653 527.872 636.746 522.475 635.368 533.939C636.396 539.669 641.862 542.43 647.211 542.812L658.518 540.506C640.02 556.1 620.368 530.691 644.607 522.639Z"/><path fill="#F87657" d="M832.284 522.835C837.463 523.547 841.618 529.59 845.039 533.578C847.141 530.999 852.238 524.505 855.606 524.396C855.538 526.191 853.662 527.925 852.391 529.45L847.046 535.982C846.997 538.628 847.202 541.371 845.436 543.315L844.384 543.131C842.973 541.06 843.357 538.686 843.42 536.114C838.605 531.564 835.819 528.357 832.284 522.835Z"/><path fill="#E83E78" d="M556.917 523.428C562.75 522.736 572.612 522.983 578.287 524.422L578.279 524.995C575.41 526.178 573.58 526.03 570.458 526.099L570.534 535.694C570.509 540.713 570.52 544.108 569.095 548.957C566.52 540.765 567.149 534.332 567.215 525.855C562.94 525.949 559.554 526.994 556.917 523.428Z"/><path fill="#AD2A64" fill-opacity="0.98431373" d="M436.13 387.179C425.846 387.687 385.572 387.495 377.085 385.968C378.11 385.313 398.297 384.585 400.712 384.683C409.84 388.113 428.778 385.007 436.13 387.179Z"/></svg>